<svg xmlns="http://www.w3.org/2000/svg" xmlns:xlink="http://www.w3.org/1999/xlink" width="113" height="113" viewBox="0 0 113 113"><defs><style>.a{opacity:0.5;}.b{fill:url(#a);}.c{fill:#f5f5f5;}.d{fill:#050329;}.e{fill:#333;}.f{opacity:0.1;}.g{fill:#fdb797;}</style><linearGradient id="a" x1="0.5" y1="1" x2="0.5" gradientUnits="objectBoundingBox"><stop offset="0" stop-color="gray" stop-opacity="0.251"/><stop offset="0.54" stop-color="gray" stop-opacity="0.122"/><stop offset="1" stop-color="gray" stop-opacity="0.102"/></linearGradient></defs><g transform="translate(0.125 0.125)"><g class="a" transform="translate(-0.125 -0.125)"><circle class="b" cx="56.5" cy="56.5" r="56.5"/></g><circle class="c" cx="55.18" cy="55.18" r="55.18" transform="translate(1.436 0.951)"/><circle class="c" cx="55.18" cy="55.18" r="55.18" transform="translate(1.436 0.951)"/><path class="d" d="M435.665,683.329a51.449,51.449,0,0,0,29.575-9.368c-1.983-11.468-9.528-12.121-9.528-12.121H414.1s-7.12.618-9.344,11.168a51.547,51.547,0,0,0,30.905,10.321Z" transform="translate(-379.035 -571.794)"/><circle class="e" cx="27.486" cy="27.486" r="27.486" transform="translate(28.596 27.527)"/><path class="f" d="M293.15,476.92h17.612v14.09a8.806,8.806,0,0,1-8.8,8.806h0a8.806,8.806,0,0,1-8.806-8.806V476.92Z" transform="translate(-245.944 -400.862)"/><path class="g" d="M293.725,473h16.5a.558.558,0,0,1,.558.558V487.09a8.806,8.806,0,0,1-8.811,8.808h0a8.806,8.806,0,0,1-8.806-8.806V473.558A.558.558,0,0,1,293.725,473Z" transform="translate(-245.961 -397.595)"/><path class="f" d="M544.34,607.229a25.349,25.349,0,0,0,17.612.048V605.11H544.34Z" transform="translate(-497.103 -523.626)"/><circle class="g" cx="25.244" cy="25.244" r="25.244" transform="translate(30.836 34.949)"/><path class="e" d="M489.487,302.031s-.923,1.393,8.14,2.687c3.647.523,1,.979,9.049,0,2.141-.259,13.908,1.073,16.475,0v-4.593l-12.386-4.445Z" transform="translate(-451.342 -264.214)"/><path class="e" d="M486.329,238.858a17.213,17.213,0,0,1,2.346-5.879c3.223-4.909,8.506,2.9,11.216-2.7.649,1.553,1.121-.667,0,0,2.6-.027,3.812,3.29,5.28,0,.741,2.656,1.241.53,0,2.7,2.3.167,4.76-.132,4.9,3.41a8.515,8.515,0,0,1-2.119,5.947c-1.254,1.353-2.973-6.456-4.472-5.947-3.43,1.167-6.037,7.55-9.139,2.469C493.638,237.71,485.712,241.813,486.329,238.858Z" transform="translate(-441.249 -205.017)"/><ellipse class="g" cx="2.349" cy="4.404" rx="2.349" ry="4.404" transform="translate(29.268 55.85)"/><ellipse class="g" cx="2.349" cy="4.404" rx="2.349" ry="4.404" transform="translate(78.169 57.595)"/></g></svg>