<svg xmlns="http://www.w3.org/2000/svg" width="181" height="82.961" viewBox="0 0 181 82.961"><defs><style>.a{fill:#3f3d56;}.b{fill:#6c63ff;}.c{fill:rgba(0,0,0,0.1);}.d{fill:rgba(108,99,255,0.1);}</style></defs><g transform="translate(77.295 57.401)"><ellipse class="a" cx="1.879" cy="2.461" rx="1.879" ry="2.461" transform="translate(0)"/></g><g transform="translate(77.288 45.369)"><g transform="translate(0 0)"><path class="a" d="M523.373,440.955a2.974,2.974,0,0,0,.393-1.5,1.952,1.952,0,1,0-3.767,0,2.974,2.974,0,0,0,.393,1.5,3.077,3.077,0,0,0,0,3.007,3.077,3.077,0,0,0,0,3.007,2.963,2.963,0,0,0-.393,1.5,1.949,1.949,0,1,0,3.76,0,2.962,2.962,0,0,0-.393-1.5,3.076,3.076,0,0,0,0-3.007,3.076,3.076,0,0,0,0-3.007Z" transform="translate(-519.999 -436.99)"/></g></g><g transform="translate(77.295 42.365)"><ellipse class="a" cx="1.879" cy="2.461" rx="1.879" ry="2.461" transform="translate(0 0)"/></g><g transform="translate(77.295 39.357)"><ellipse class="a" cx="1.879" cy="2.461" rx="1.879" ry="2.461" transform="translate(0 0)"/></g><g transform="translate(70.212 6.606)"><g transform="translate(0 0)"><path class="b" d="M479.077,216.9a8.774,8.774,0,0,1-.7-1.031l4.938-.811-5.341.04a9.024,9.024,0,0,1-.165-7.134l7.166,3.717-6.606-4.859A9.005,9.005,0,1,1,493.232,216.9a9,9,0,0,1,1.027,1.642l-6.413,3.339,6.835-2.294a9.013,9.013,0,0,1-1.452,8.455,9,9,0,1,1-14.153,0,9.028,9.028,0,0,1,0-11.134Z" transform="translate(-477.15 -202.272)"/></g></g><g transform="translate(70.212 26.67)"><g transform="translate(0 0)"><path class="c" d="M495.157,323.9a8.964,8.964,0,0,1-1.927,5.567,9,9,0,1,1-14.153,0C477.87,327.934,495.157,322.888,495.157,323.9Z" transform="translate(-477.15 -323.766)"/></g></g><g transform="translate(99.71 52.762)"><ellipse class="a" cx="1.405" cy="1.838" rx="1.405" ry="1.838"/></g><g transform="translate(99.708 43.772)"><g transform="translate(0 0)"><path class="a" d="M658.276,430.283a2.218,2.218,0,0,0,.292-1.123,1.456,1.456,0,1,0-2.809,0,2.2,2.2,0,0,0,.294,1.123,2.3,2.3,0,0,0,0,2.248,2.3,2.3,0,0,0,0,2.248,2.2,2.2,0,0,0-.294,1.123,1.456,1.456,0,1,0,2.809,0,2.217,2.217,0,0,0-.292-1.123,2.314,2.314,0,0,0,0-2.248A2.314,2.314,0,0,0,658.276,430.283Z" transform="translate(-655.759 -427.32)"/></g></g><g transform="translate(99.71 41.526)"><ellipse class="a" cx="1.405" cy="1.838" rx="1.405" ry="1.838" transform="translate(0 0)"/></g><g transform="translate(99.71 39.278)"><ellipse class="a" cx="1.405" cy="1.838" rx="1.405" ry="1.838" transform="translate(0 0)"/></g><g transform="translate(94.418 14.835)"><g transform="translate(0 0)"><path class="b" d="M625.162,263a6.436,6.436,0,0,1-.524-.77l3.691-.606-3.992.03a6.748,6.748,0,0,1-.129-5.333l5.356,2.779-4.94-3.633A6.73,6.73,0,1,1,635.738,263a6.808,6.808,0,0,1,.768,1.227l-4.789,2.489L636.824,265a6.737,6.737,0,0,1-1.085,6.318,6.728,6.728,0,1,1-10.569,0,6.746,6.746,0,0,1,0-8.32Z" transform="translate(-623.722 -252.103)"/></g></g><g transform="translate(94.421 29.797)"><g transform="translate(0 0)"><path class="c" d="M637.193,342.8a6.7,6.7,0,0,1-1.44,4.16,6.728,6.728,0,1,1-10.569,0C624.278,345.815,637.193,342.045,637.193,342.8Z" transform="translate(-623.74 -342.7)"/></g></g><g transform="translate(169.638 50.795)"><ellipse class="a" cx="1.879" cy="2.461" rx="1.879" ry="2.461"/></g><g transform="translate(169.636 38.763)"><g transform="translate(0 0)"><path class="a" d="M1079.582,400.955a2.969,2.969,0,0,1-.393-1.5,1.949,1.949,0,1,1,3.76,0,2.965,2.965,0,0,1-.393,1.5,3.075,3.075,0,0,1,0,3.007,3.075,3.075,0,0,1,0,3.007,2.964,2.964,0,0,1,.393,1.5,1.949,1.949,0,1,1-3.76,0,2.968,2.968,0,0,1,.393-1.5,3.075,3.075,0,0,1,0-3.007A3.075,3.075,0,0,1,1079.582,400.955Z" transform="translate(-1079.189 -396.99)"/></g></g><g transform="translate(169.638 35.759)"><ellipse class="a" cx="1.879" cy="2.461" rx="1.879" ry="2.461" transform="translate(0 0)"/></g><g transform="translate(169.638 32.751)"><ellipse class="a" cx="1.879" cy="2.461" rx="1.879" ry="2.461" transform="translate(0 0)"/></g><g transform="translate(162.428 0)"><g transform="translate(0)"><path class="b" d="M1051.665,176.9a8.715,8.715,0,0,0,.7-1.031l-4.938-.811,5.341.04a9.017,9.017,0,0,0,.165-7.134l-7.166,3.717,6.606-4.859A9.005,9.005,0,1,0,1037.51,176.9a9.056,9.056,0,0,0-1.027,1.642l6.413,3.339-6.835-2.294a9.016,9.016,0,0,0,1.451,8.455,9,9,0,1,0,14.153,0,9.028,9.028,0,0,0,0-11.134Z" transform="translate(-1035.54 -162.272)"/></g></g><g transform="translate(162.472 20.064)"><g transform="translate(0 0)"><path class="c" d="M1035.81,283.9a8.961,8.961,0,0,0,1.927,5.567,9,9,0,1,0,14.153,0C1053.1,287.934,1035.81,282.888,1035.81,283.9Z" transform="translate(-1035.81 -283.766)"/></g></g><g transform="translate(151.969 51.771)"><ellipse class="a" cx="1.405" cy="1.838" rx="1.405" ry="1.838" transform="translate(0 0)"/></g><g transform="translate(151.972 42.781)"><g transform="translate(0 0)"><path class="a" d="M972.522,424.283a2.216,2.216,0,0,1-.292-1.123,1.456,1.456,0,1,1,2.809,0,2.2,2.2,0,0,1-.294,1.123,2.3,2.3,0,0,1,0,2.248,2.3,2.3,0,0,1,0,2.248,2.2,2.2,0,0,1,.294,1.123,1.456,1.456,0,1,1-2.809,0,2.216,2.216,0,0,1,.292-1.123,2.315,2.315,0,0,1,0-2.248A2.315,2.315,0,0,1,972.522,424.283Z" transform="translate(-972.229 -421.32)"/></g></g><g transform="translate(151.969 40.535)"><ellipse class="a" cx="1.405" cy="1.838" rx="1.405" ry="1.838" transform="translate(0 0)"/></g><g transform="translate(151.969 38.287)"><ellipse class="a" cx="1.405" cy="1.838" rx="1.405" ry="1.838" transform="translate(0 0)"/></g><g transform="translate(146.61 13.844)"><g transform="translate(0 0)"><path class="b" d="M951.78,257a6.342,6.342,0,0,0,.524-.77l-3.691-.606,3.992.03a6.747,6.747,0,0,0,.129-5.333l-5.356,2.779,4.94-3.633A6.73,6.73,0,1,0,941.2,257a6.8,6.8,0,0,0-.768,1.227l4.789,2.489-5.1-1.713a6.737,6.737,0,0,0,1.085,6.318,6.728,6.728,0,1,0,10.569,0,6.745,6.745,0,0,0,0-8.32Z" transform="translate(-939.757 -246.103)"/></g></g><g transform="translate(146.613 28.806)"><g transform="translate(0 0)"><path class="c" d="M939.783,336.8a6.7,6.7,0,0,0,1.44,4.16,6.728,6.728,0,1,0,10.569,0C952.7,339.815,939.783,336.045,939.783,336.8Z" transform="translate(-939.78 -336.7)"/></g></g><g transform="translate(8.292 50.795)"><ellipse class="a" cx="1.879" cy="2.461" rx="1.879" ry="2.461" transform="translate(0)"/></g><g transform="translate(8.292 38.763)"><g transform="translate(0 0)"><path class="a" d="M105.575,400.955a2.973,2.973,0,0,0,.393-1.5,1.948,1.948,0,1,0-3.759,0,2.973,2.973,0,0,0,.391,1.5,3.086,3.086,0,0,0,0,3.007,3.087,3.087,0,0,0,0,3.007,2.962,2.962,0,0,0-.391,1.5,1.95,1.95,0,1,0,3.764,0,2.963,2.963,0,0,0-.393-1.5,3.076,3.076,0,0,0,0-3.007,3.076,3.076,0,0,0,0-3.007Z" transform="translate(-102.209 -396.99)"/></g></g><g transform="translate(8.292 35.759)"><ellipse class="a" cx="1.879" cy="2.461" rx="1.879" ry="2.461" transform="translate(0 0)"/></g><g transform="translate(8.292 32.751)"><ellipse class="a" cx="1.879" cy="2.461" rx="1.879" ry="2.461" transform="translate(0 0)"/></g><g transform="translate(1.207 0.028)"><g transform="translate(0 0)"><path class="b" d="M61.241,177.041a8.97,8.97,0,0,1-.7-1.03l4.94-.811-5.346.048a9.023,9.023,0,0,1-.165-7.134l7.167,3.717-6.606-4.859a9,9,0,1,1,14.863,10.074,9,9,0,0,1,1.027,1.642l-6.414,3.331,6.837-2.294a9.023,9.023,0,0,1-1.453,8.456,9,9,0,1,1-14.153,0,9.028,9.028,0,0,1,0-11.134Z" transform="translate(-59.31 -162.439)"/></g></g><g transform="translate(1.207 20.064)"><g transform="translate(0 0)"><path class="c" d="M77.318,283.9a8.964,8.964,0,0,1-1.927,5.567,9,9,0,1,1-14.153,0C60.03,287.934,77.318,282.888,77.318,283.9Z" transform="translate(-59.31 -283.766)"/></g></g><g transform="translate(26.907 51.771)"><ellipse class="a" cx="1.405" cy="1.838" rx="1.405" ry="1.838" transform="translate(0 0)"/></g><g transform="translate(26.907 42.781)"><g transform="translate(0 0)"><path class="a" d="M217.446,424.283a2.217,2.217,0,0,0,.292-1.123,1.456,1.456,0,1,0-2.809,0,2.218,2.218,0,0,0,.294,1.123,2.3,2.3,0,0,0,0,2.248,2.3,2.3,0,0,0,0,2.248,2.218,2.218,0,0,0-.294,1.123,1.456,1.456,0,1,0,2.809,0,2.217,2.217,0,0,0-.292-1.123,2.314,2.314,0,0,0,0-2.248A2.314,2.314,0,0,0,217.446,424.283Z" transform="translate(-214.929 -421.32)"/></g></g><g transform="translate(26.907 40.535)"><ellipse class="a" cx="1.405" cy="1.838" rx="1.405" ry="1.838" transform="translate(0 0)"/></g><g transform="translate(26.907 38.287)"><ellipse class="a" cx="1.405" cy="1.838" rx="1.405" ry="1.838" transform="translate(0 0)"/></g><g transform="translate(21.615 13.844)"><g transform="translate(0 0)"><path class="b" d="M184.322,257a6.631,6.631,0,0,1-.524-.77l3.691-.606-3.992.03a6.747,6.747,0,0,1-.129-5.333l5.356,2.779-4.939-3.633A6.73,6.73,0,1,1,194.9,257a6.624,6.624,0,0,1,.768,1.227l-4.789,2.489L195.984,259a6.737,6.737,0,0,1-1.085,6.318,6.728,6.728,0,1,1-10.569,0,6.746,6.746,0,0,1,0-8.32Z" transform="translate(-182.882 -246.103)"/></g></g><g transform="translate(21.618 28.806)"><g transform="translate(0 0)"><path class="c" d="M196.353,336.8a6.7,6.7,0,0,1-1.44,4.16,6.728,6.728,0,1,1-10.569,0C183.435,339.815,196.353,336.045,196.353,336.8Z" transform="translate(-182.9 -336.7)"/></g></g><g transform="translate(0 80.034)"><g transform="translate(0 0)"><ellipse class="d" cx="90.5" cy="1.463" rx="90.5" ry="1.463"/></g></g><g transform="translate(0 54.96)"><g transform="translate(0 0)"><ellipse class="d" cx="90.5" cy="1.463" rx="90.5" ry="1.463"/></g></g><g transform="translate(0 67.496)"><g transform="translate(0 0)"><ellipse class="d" cx="90.5" cy="1.463" rx="90.5" ry="1.463"/></g></g><g transform="translate(124.514 14.263)"><g transform="translate(0 0)"><path class="d" d="M815.015,252.663a3.023,3.023,0,0,0-1.751.192,2.586,2.586,0,0,1-2.1,0,2.954,2.954,0,0,0-2.477.048,1.526,1.526,0,0,1-.712.178c-1,0-1.838-1.011-2.011-2.343a1.962,1.962,0,0,0,.5-.54,2.819,2.819,0,0,1,5.032-.018,1.931,1.931,0,0,0,1.666.915h.026A2.078,2.078,0,0,1,815.015,252.663Z" transform="translate(-805.96 -248.64)"/></g></g><g transform="translate(124.51 10.534)"><g transform="translate(0 0)"><path class="d" d="M818.055,229.625l-1.622,1.027.991-1.79a1.6,1.6,0,0,0-.981-.348h-.026a1.879,1.879,0,0,1-.33-.025l-.558.348.236-.429a1.948,1.948,0,0,1-.963-.73l-.991.624.621-1.13a2.878,2.878,0,0,0-2.2-1.113,3.022,3.022,0,0,0-2.523,1.556,1.887,1.887,0,0,1-1.666.9h-.055c-1.13,0-2.045,1.28-2.045,2.859s.915,2.86,2.045,2.86a1.55,1.55,0,0,0,.712-.178,2.951,2.951,0,0,1,2.477-.05,2.569,2.569,0,0,0,2.1,0,2.961,2.961,0,0,1,2.454.048,1.536,1.536,0,0,0,.7.175c1.13,0,2.045-1.281,2.045-2.86A3.622,3.622,0,0,0,818.055,229.625Z" transform="translate(-805.94 -226.06)"/></g></g><g transform="translate(58.28 14.577)"><g transform="translate(0 0)"><path class="d" d="M411.235,253.356a2.119,2.119,0,0,0-1.227.134,1.805,1.805,0,0,1-1.472,0,2.062,2.062,0,0,0-1.732.035,1.094,1.094,0,0,1-.5.124c-.7,0-1.286-.707-1.409-1.64a1.376,1.376,0,0,0,.352-.378,1.973,1.973,0,0,1,3.523-.013,1.354,1.354,0,0,0,1.168.641h.018A1.464,1.464,0,0,1,411.235,253.356Z" transform="translate(-404.9 -250.54)"/></g></g><g transform="translate(58.277 11.968)"><g transform="translate(0 0)"><path class="d" d="M413.357,237.237l-1.135.72.689-1.253a1.115,1.115,0,0,0-.685-.244h-.02a1.226,1.226,0,0,1-.234-.018l-.385.244.165-.3a1.37,1.37,0,0,1-.674-.51l-.689.436.436-.789a2.018,2.018,0,0,0-1.542-.781,2.112,2.112,0,0,0-1.765,1.09,1.322,1.322,0,0,1-1.168.629h-.038c-.791,0-1.432.9-1.432,2s.641,2,1.432,2a1.072,1.072,0,0,0,.5-.125,2.066,2.066,0,0,1,1.731-.033,1.774,1.774,0,0,0,1.473.01,2.072,2.072,0,0,1,1.718.033,1.071,1.071,0,0,0,.5.122c.789,0,1.43-.9,1.43-2A2.533,2.533,0,0,0,413.357,237.237Z" transform="translate(-404.88 -234.74)"/></g></g><g transform="translate(44.522 27.526)"><g transform="translate(0 0)"><path class="d" d="M321.59,331.766a2.117,2.117,0,0,1,1.225.134,1.807,1.807,0,0,0,1.473,0,2.069,2.069,0,0,1,1.732.033,1.07,1.07,0,0,0,.5.126c.7,0,1.286-.709,1.407-1.642a1.346,1.346,0,0,1-.35-.378,1.975,1.975,0,0,0-3.524-.012,1.354,1.354,0,0,1-1.166.641h-.018A1.474,1.474,0,0,0,321.59,331.766Z" transform="translate(-321.59 -328.95)"/></g></g><g transform="translate(42.089 24.924)"><g transform="translate(0)"><path class="d" d="M307.15,315.685l1.136.72-.69-1.252a1.122,1.122,0,0,1,.687-.246h.018a1.406,1.406,0,0,0,.236-.017l.385.243-.165-.3a1.368,1.368,0,0,0,.672-.51l.689.436-.429-.791a2.016,2.016,0,0,1,1.542-.78A2.114,2.114,0,0,1,313,314.28a1.323,1.323,0,0,0,1.166.629h.04c.789,0,1.43.9,1.43,2s-.641,2-1.43,2a1.072,1.072,0,0,1-.5-.124,2.062,2.062,0,0,0-1.732-.035,1.792,1.792,0,0,1-.74.165,1.816,1.816,0,0,1-.733-.155,2.068,2.068,0,0,0-1.716.033,1.07,1.07,0,0,1-.5.122c-.791,0-1.432-.9-1.432-2A2.55,2.55,0,0,1,307.15,315.685Z" transform="translate(-306.857 -313.19)"/></g></g><g transform="translate(112.261 22.886)"><g transform="translate(0 0)"><circle class="a" cx="16.508" cy="16.508" r="16.508" transform="translate(0)"/></g></g><g transform="translate(121.245 31.869)"><g transform="translate(0 0)"><path class="b" d="M800.781,367.03a12.514,12.514,0,0,0-2.642-1.765c-.791-.38-1.082-.373-1.642.031-.466.33-.768.649-1.3.532a7.845,7.845,0,0,1-2.621-1.939,7.617,7.617,0,0,1-1.936-2.619c-.114-.543.2-.839.534-1.3.4-.56.414-.85.031-1.642a12.663,12.663,0,0,0-1.767-2.642c-.58-.578-.705-.451-1.022-.33a5.9,5.9,0,0,0-.936.5,2.824,2.824,0,0,0-1.123,1.187c-.226.482-.482,1.377.834,3.721a21.473,21.473,0,0,0,8.533,8.523c2.342,1.321,3.239,1.059,3.721.834a2.774,2.774,0,0,0,1.186-1.123,5.865,5.865,0,0,0,.5-.936C801.232,367.735,801.36,367.607,800.781,367.03Z" transform="translate(-786.17 -355.248)"/></g></g><g transform="translate(112.246 22.887)"><g transform="translate(0 0)"><path class="c" d="M748.2,300.86h-.008a16.515,16.515,0,1,0,16.515,16.515v-.008A16.593,16.593,0,0,0,748.2,300.86Zm0,30.82a14.313,14.313,0,1,1,14.313-14.313A14.382,14.382,0,0,1,748.2,331.68Z" transform="translate(-731.68 -300.86)"/></g></g><g transform="translate(74.336 47.96)"><g transform="translate(0 0)"><circle class="a" cx="16.508" cy="16.508" r="16.508" transform="translate(0)"/></g></g><g transform="translate(81.292 59.445)"><g transform="translate(0 0)"><path class="b" d="M563.181,522.263l-4.943,5.029a.089.089,0,0,0,0,.129l3.468,3.688a.6.6,0,1,1-.844.844l-3.45-3.675a.1.1,0,0,0-.132,0l-.841.849a3.7,3.7,0,0,1-2.642,1.111,3.777,3.777,0,0,1-2.689-1.143l-.808-.826a.094.094,0,0,0-.132,0l-3.442,3.666a.6.6,0,1,1-.844-.844l3.455-3.68a.1.1,0,0,0,0-.129l-4.943-5.029a.091.091,0,0,0-.155.064h0v10.062a1.48,1.48,0,0,0,1.468,1.468h16.163a1.48,1.48,0,0,0,1.468-1.468V522.327s0,0,0,0a.091.091,0,0,0-.159-.06Z" transform="translate(-544.24 -522.228)"/></g></g><g transform="translate(81.855 57.86)"><g transform="translate(0 0)"><path class="b" d="M556.639,521.031a2.5,2.5,0,0,0,1.8-.743l7.2-7.327a1.437,1.437,0,0,0-.908-.33H548.558a1.428,1.428,0,0,0-.908.33l7.2,7.327A2.49,2.49,0,0,0,556.639,521.031Z" transform="translate(-547.65 -512.63)"/></g></g><g transform="translate(74.113 47.961)"><g transform="translate(0 0)"><path class="c" d="M517.293,452.69h-.008A16.515,16.515,0,1,0,533.8,469.2V469.2A16.593,16.593,0,0,0,517.293,452.69Zm0,30.82A14.313,14.313,0,1,1,531.606,469.2,14.382,14.382,0,0,1,517.293,483.51Z" transform="translate(-500.77 -452.69)"/></g></g><g transform="translate(35.158 35.632)"><g transform="translate(0 0)"><circle class="a" cx="16.508" cy="16.508" r="16.508"/></g></g><g transform="translate(45.085 44.241)"><g transform="translate(0 0)"><path class="b" d="M331.581,430.16,325,445.344l.614.614,5.968-2.632,5.968,2.632.614-.614Z" transform="translate(-325 -430.16)"/></g></g><g transform="translate(35.143 35.627)"><g transform="translate(0 0)"><path class="c" d="M281.323,378h-.008a16.511,16.511,0,1,0,.008,0Zm0,30.82a14.313,14.313,0,1,1,14.313-14.313v.008a14.382,14.382,0,0,1-14.313,14.312Z" transform="translate(-264.8 -378)"/></g></g></svg>