<svg xmlns="http://www.w3.org/2000/svg" width="437.124" height="643.254" viewBox="0 0 437.124 643.254"><defs><style>.a{fill:#3f3d56;}.b{fill:#e6e8ec;}.c{fill:#fff;}.d{fill:#e6e6e6;}.e{fill:#6c63ff;}</style></defs><g transform="matrix(0.966, -0.259, 0.259, 0.966, -469.845, 202.326)"><path class="a" d="M937.726,295.069v66.5a2.324,2.324,0,0,1-2.316,2.319h-1.648V710.311a36.128,36.128,0,0,1-36.1,36.146H681.429a36.119,36.119,0,0,1-36.1-36.142V376.038h-1.193a1.637,1.637,0,0,1-1.638-1.63V336.561a1.639,1.639,0,0,1,1.639-1.64h1.193V320.665h-1.2a1.717,1.717,0,0,1-1.709-1.721v-37.33a1.715,1.715,0,0,1,1.709-1.711h1.2v-19.46h-1.224a1.516,1.516,0,0,1-1.517-1.519V238.552a1.525,1.525,0,0,1,1.517-1.529h1.224V195.774a36.117,36.117,0,0,1,36.1-36.136H897.654a36.126,36.126,0,0,1,36.107,36.136V292.75h1.648a2.324,2.324,0,0,1,2.316,2.319Z" transform="translate(-156 -159.638)"/><rect class="b" width="39.823" height="8.086" rx="2.542" transform="translate(606.466 18.307)"/><circle class="b" cx="4.587" cy="4.587" r="4.587" transform="translate(652.681 17.763)"/><path class="c" d="M916.711,202.687V713.418a22.95,22.95,0,0,1-22.951,22.938H686.386a22.91,22.91,0,0,1-22.951-22.938V202.687a22.949,22.949,0,0,1,22.952-22.948h31.037v3.982a18.9,18.9,0,0,0,18.9,18.9H841.787a18.9,18.9,0,0,0,18.9-18.9v-3.982h33.074a22.942,22.942,0,0,1,22.951,22.948Z" transform="translate(-156 -159.638)"/><rect class="d" width="211.326" height="27" transform="translate(528.827 356.569)"/><rect class="d" width="211.326" height="27" transform="translate(528.827 405.198)"/><rect class="d" width="211.326" height="27" transform="translate(528.827 453.827)"/><circle class="e" cx="20" cy="20" r="20" transform="translate(696.564 70.959)"/><rect class="d" width="211.326" height="138" transform="translate(528.41 160.548)"/><path class="a" d="M767.235,395.188c6.073,22.45,26.875,36.354,26.875,36.354s10.955-22.495,4.882-44.945-26.875-36.354-26.875-36.354S761.162,372.738,767.235,395.188Z" transform="translate(-154.406 -156.869)"/><path class="e" d="M776.159,390.363c16.665,16.223,18.7,41.16,18.7,41.16s-24.984-1.364-41.648-17.587-18.7-41.16-18.7-41.16S759.495,374.141,776.159,390.363Z" transform="translate(-154.678 -156.676)"/><path class="a" d="M822.484,395.188c-6.073,22.45-26.875,36.354-26.875,36.354s-10.955-22.495-4.882-44.945S817.6,350.243,817.6,350.243,828.557,372.738,822.484,395.188Z" transform="translate(-154.101 -156.869)"/><path class="e" d="M813.56,390.363c-16.665,16.223-18.7,41.16-18.7,41.16s24.984-1.364,41.648-17.587,18.7-41.16,18.7-41.16S830.225,374.141,813.56,390.363Z" transform="translate(-153.811 -156.676)"/></g></svg>