<svg xmlns="http://www.w3.org/2000/svg" width="32" height="32" viewBox="0 0 32 32"><defs><style>.a{fill:none;}.b{fill:#ac982c;}</style></defs><path class="a" d="M0,0H32V32H0Z"/><path class="b" d="M7.976,5.717,5.8,3.561l-1.708,1.7L6.256,7.415ZM4.633,12.533H1v2.409H4.633ZM15.533.55H13.111V4.1h2.422V.55Zm9.022,4.709-1.708-1.7L20.68,5.717l1.708,1.7Zm-3.887,16.5,2.168,2.168,1.708-1.7-2.18-2.156-1.7,1.686Zm3.343-9.225v2.409h3.633V12.533ZM14.322,6.512a7.226,7.226,0,1,0,7.266,7.226A7.252,7.252,0,0,0,14.322,6.512ZM13.111,26.925h2.422V23.373H13.111ZM4.088,22.216l1.708,1.7,2.168-2.168-1.708-1.7Z" transform="translate(1.678 0.923)"/></svg>