<svg xmlns="http://www.w3.org/2000/svg" xmlns:xlink="http://www.w3.org/1999/xlink" width="161.707" height="103.046" viewBox="0 0 161.707 103.046"><defs><style>.a{opacity:0.971;}.b{fill:#3f3d56;}.c,.d{fill:#050329;}.d,.k,.l{fill-rule:evenodd;}.e{opacity:0.7;}.f{fill:url(#a);}.g{fill:#6c63ff;}.h{fill:rgba(0,0,0,0.1);}.i{fill:#e0e0e0;}.j{fill:#fdb797;}.k{fill:url(#b);}.l{fill:#535461;}.m{fill:#fff;}.n{fill:#eee;}.o{fill:#333;}.p{opacity:0.1;}</style><linearGradient id="a" x1="-8.986" y1="-7.045" x2="-8.977" y2="-7.045" gradientUnits="objectBoundingBox"><stop offset="0" stop-color="gray" stop-opacity="0.251"/><stop offset="0.54" stop-color="gray" stop-opacity="0.122"/><stop offset="1" stop-color="gray" stop-opacity="0.102"/></linearGradient><linearGradient id="b" x1="-0.676" y1="-1.588" x2="-0.673" y2="-1.588" xlink:href="#a"/></defs><g class="a"><g transform="translate(17.672 73.534)"><path class="b" d="M227.048,612.549c-1.163,4.427-5.237,7.194-5.237,7.194s-2.189-4.412-1.026-8.839,5.237-7.194,5.237-7.194S228.211,608.121,227.048,612.549Z" transform="translate(-220.445 -603.71)"/></g><g transform="translate(18.892 77.915)"><path class="c" d="M231.39,633.546c-3.257,3.217-3.621,8.128-3.621,8.128s4.915-.3,8.172-3.522,3.621-8.128,3.621-8.128S234.646,630.329,231.39,633.546Z" transform="translate(-227.769 -630.024)"/></g><path class="d" d="M85.851,575.771a2.531,2.531,0,0,0-2.53-2.53H70.583a2.531,2.531,0,0,0-2.53,2.53v2.514a2.531,2.531,0,0,0,2.53,2.53H83.321a2.531,2.531,0,0,0,2.53-2.53Z" transform="translate(-56.725 -484.97)"/><g class="e" transform="translate(135.42 80.705)"><path class="f" d="M941.449,649.514v-2.729H927.8v12.621a2.673,2.673,0,0,0,2.661,2.661h8.323a2.673,2.673,0,0,0,2.66-2.661v-2.8a3.548,3.548,0,0,0,0-7.1Zm0,5.731v-4.366a2.183,2.183,0,1,1,0,4.366Z" transform="translate(-927.805 -646.785)"/></g><g transform="translate(145.387 83.861)"><path class="g" d="M990.918,665.744a3.239,3.239,0,1,0,3.239,3.239h0A3.255,3.255,0,0,0,990.918,665.744Zm0,5.233h0a1.993,1.993,0,1,1,1.993-1.993A2,2,0,0,1,990.918,670.977Z" transform="translate(-987.678 -665.744)"/></g><g transform="translate(145.387 83.861)"><path class="h" d="M990.918,665.744a3.239,3.239,0,1,0,3.239,3.239h0A3.255,3.255,0,0,0,990.918,665.744Zm0,5.233h0a1.993,1.993,0,1,1,1.993-1.993A2,2,0,0,1,990.918,670.977Z" transform="translate(-987.678 -665.744)"/></g><path class="c" d="M818.016,531.776h12.458v12.33a1.631,1.631,0,0,1-1.623,1.623h-9.212a1.631,1.631,0,0,1-1.623-1.623Z" transform="translate(-681.848 -450.407)"/><rect class="i" width="161.707" height="5.482" transform="translate(0 95.322)"/><g transform="translate(52.704 46.194)"><path class="c" d="M459.646,472.967c8.139,0,21.443-2.426,27.765-6.594-.685-3.743-2.261-9.8-3.754-15.219-1.9-6.9-13.9-11.688-21.064-11.688h-6.9c-7.182,0-19.2,4.813-21.08,11.745-1.431,5.283-2.958,11.085-3.718,14.491C437.411,470.279,451.08,472.967,459.646,472.967Z" transform="translate(-430.896 -439.465)"/></g><path class="h" d="M449.291,261.311h12.4v9.918a6.228,6.228,0,0,1-6.2,6.2h0a6.229,6.229,0,0,1-6.2-6.2v-9.918Z" transform="translate(-374.501 -224.964)"/><path class="j" d="M451.069,258.553h8.841a1.787,1.787,0,0,1,1.778,1.778v8.14a6.228,6.228,0,0,1-6.2,6.2h0a6.229,6.229,0,0,1-6.2-6.2v-8.14A1.787,1.787,0,0,1,451.069,258.553Z" transform="translate(-374.501 -222.665)"/><g class="e" transform="translate(46.469 55.722)"><path class="k" d="M347.927,380.118a2.415,2.415,0,0,0-2.414-2.414H281.572a2.415,2.415,0,0,0-2.414,2.414V414.89a2.415,2.415,0,0,0,2.414,2.414h63.942a2.415,2.415,0,0,0,2.414-2.414Z" transform="translate(-279.158 -377.704)"/></g><path class="l" d="M352.92,386.56a4.469,4.469,0,0,0-4.467-4.467H291.109a4.469,4.469,0,0,0-4.467,4.467V416.5a4.469,4.469,0,0,0,4.467,4.467h57.344a4.469,4.469,0,0,0,4.467-4.467Z" transform="translate(-238.927 -325.64)"/><circle class="m" cx="2.242" cy="2.242" r="2.242" transform="translate(78.611 73.645)"/><rect class="i" width="148.003" height="2.242" transform="translate(6.852 100.804)"/><rect class="h" width="148.003" height="0.747" transform="translate(6.852 100.804)"/><g transform="translate(143.954 81.369)"><path class="h" d="M981.5,650.776V662.3a2.441,2.441,0,0,1-2.429,2.429h1.246a2.441,2.441,0,0,0,2.43-2.429V650.776Z" transform="translate(-979.071 -650.776)"/></g><g transform="translate(138.029 71.762)"><path class="n" d="M944.075,593.383a.728.728,0,0,0-.55.279c-.163.3.133.63.4.834a5.365,5.365,0,0,1,1.365,1.27,1.593,1.593,0,0,1,.075,1.76c-.484.657-1.64.8-1.752,1.607-.072.519.377.962.831,1.222,1.122.643,2.569.814,3.382,1.82a2.622,2.622,0,0,1,1.838-1.262c.75-.171,1.529-.158,2.289-.274a.792.792,0,0,0,.632-.335c.212-.431-.393-.949-.184-1.381.159-.33.627-.3.968-.436a1.261,1.261,0,0,0,.628-1.5,2.84,2.84,0,0,0-1.072-1.391,12,12,0,0,0-4.316-1.995,11.049,11.049,0,0,0-2.294-.531A11.464,11.464,0,0,0,944.075,593.383Z" transform="translate(-943.478 -593.064)"/></g><g transform="translate(62.235)"><circle class="o" cx="18.342" cy="18.342" r="18.342" transform="translate(0.078 2.128)"/><path class="p" d="M544.34,606.524a16.914,16.914,0,0,0,11.753.032V605.11H544.34Z" transform="translate(-531.819 -566.338)"/><circle class="j" cx="16.846" cy="16.846" r="16.846" transform="translate(1.574 7.28)"/><path class="o" d="M489.478,299.918s-.616.929,5.432,1.793c2.434.349.666.654,6.038,0,1.429-.173,9.281.716,10.994,0v-3.065l-8.266-2.966Z" transform="translate(-483.058 -291.326)"/><path class="o" d="M486.317,235.961a11.486,11.486,0,0,1,1.566-3.923c2.151-3.276,5.676,1.934,7.485-1.8.433,1.037.748-.445,0,0,1.733-.018,2.544,2.2,3.524,0,.494,1.772.828.354,0,1.8,1.535.111,3.176-.088,3.273,2.276a5.682,5.682,0,0,1-1.414,3.969c-.837.9-1.984-4.308-2.984-3.969-2.289.779-4.029,5.038-6.1,1.647C491.195,235.2,485.906,237.933,486.317,235.961Z" transform="translate(-475.213 -230.152)"/><ellipse class="j" cx="1.567" cy="2.939" rx="1.567" ry="2.939" transform="translate(0 21.172)"/><ellipse class="j" cx="1.567" cy="2.939" rx="1.567" ry="2.939" transform="translate(33.696 22.376)"/></g></g></svg>