<svg xmlns="http://www.w3.org/2000/svg" width="185.734" height="111.606" viewBox="0 0 185.734 111.606"><defs><style>.a{opacity:0.75;}.b,.h{opacity:0.5;}.c{fill:#3f3d56;}.d,.g,.h{fill:#6c63ff;}.e,.g,.j{opacity:0.1;}.f{opacity:0.491;}.i{fill:none;stroke:#3f3d56;stroke-miterlimit:10;stroke-width:4px;}</style></defs><g class="a" transform="translate(0 0.359)"><g class="b" transform="translate(71.005 7.305)"><ellipse class="c" cx="2.18" cy="2.855" rx="2.18" ry="2.855" transform="translate(8.218 58.934)"/><path class="c" d="M523.914,441.59a3.449,3.449,0,0,0,.456-1.746c0-1.577-.977-2.855-2.182-2.855S520,438.272,520,439.849a3.45,3.45,0,0,0,.456,1.746,3.566,3.566,0,0,0,0,3.489,3.566,3.566,0,0,0,0,3.489,3.438,3.438,0,0,0-.456,1.746c0,1.575.977,2.855,2.18,2.855s2.182-1.28,2.182-2.855a3.438,3.438,0,0,0-.456-1.746,3.566,3.566,0,0,0,0-3.489,3.566,3.566,0,0,0,0-3.489Z" transform="translate(-511.789 -392.017)"/><ellipse class="c" cx="2.18" cy="2.855" rx="2.18" ry="2.855" transform="translate(8.218 41.488)"/><ellipse class="c" cx="2.18" cy="2.855" rx="2.18" ry="2.855" transform="translate(8.218 37.999)"/><path class="d" d="M479.385,219.245a10.168,10.168,0,0,1-.812-1.2l5.729-.941-6.2.046a10.466,10.466,0,0,1-.192-8.277l8.314,4.313-7.664-5.637a10.448,10.448,0,1,1,17.245,11.688,10.45,10.45,0,0,1,1.192,1.9l-7.44,3.874,7.931-2.661a10.448,10.448,0,0,1-1.684,9.81,10.446,10.446,0,1,1-16.421,0,10.446,10.446,0,0,1,0-12.918Z" transform="translate(-477.149 -202.271)"/><path class="e" d="M498.042,323.92a10.4,10.4,0,0,1-2.236,6.459,10.446,10.446,0,1,1-16.421,0C477.985,328.6,498.042,322.748,498.042,323.92Z" transform="translate(-477.149 -300.487)"/></g><g class="f" transform="translate(95.87 17.247)"><ellipse class="c" cx="1.631" cy="2.133" rx="1.631" ry="2.133" transform="translate(6.141 44.004)"/><path class="c" d="M658.679,430.757a2.573,2.573,0,0,0,.339-1.3,1.689,1.689,0,1,0-3.259,0,2.554,2.554,0,0,0,.341,1.3,2.663,2.663,0,0,0,0,2.608,2.663,2.663,0,0,0,0,2.608,2.554,2.554,0,0,0-.341,1.3,1.689,1.689,0,1,0,3.259,0,2.573,2.573,0,0,0-.339-1.3,2.682,2.682,0,0,0,0-2.608A2.683,2.683,0,0,0,658.679,430.757Z" transform="translate(-649.62 -393.747)"/><ellipse class="c" cx="1.631" cy="2.133" rx="1.631" ry="2.133" transform="translate(6.141 30.967)"/><ellipse class="c" cx="1.631" cy="2.133" rx="1.631" ry="2.133" transform="translate(6.141 28.359)"/><path class="d" d="M625.391,264.75a7.477,7.477,0,0,1-.607-.893l4.282-.7-4.631.034a7.825,7.825,0,0,1-.149-6.187l6.214,3.225-5.731-4.215a7.808,7.808,0,1,1,12.893,8.737,7.9,7.9,0,0,1,.891,1.424L633,269.06l5.926-1.989a7.81,7.81,0,0,1-1.259,7.331,7.806,7.806,0,1,1-12.263,0,7.806,7.806,0,0,1,0-9.653Z" transform="translate(-623.72 -252.103)"/><path d="M639.348,342.815a7.773,7.773,0,0,1-1.671,4.827,7.806,7.806,0,1,1-12.263,0C624.364,346.314,639.348,341.94,639.348,342.815Z" transform="translate(-623.736 -325.341)"/></g><g class="b" transform="translate(164.187 -0.359)"><ellipse class="c" cx="2.18" cy="2.855" rx="2.18" ry="2.855" transform="translate(8.365 58.934)"/><path class="c" d="M1079.645,401.59a3.449,3.449,0,0,1-.456-1.746c0-1.577.977-2.855,2.182-2.855s2.181,1.278,2.181,2.855a3.449,3.449,0,0,1-.456,1.746,3.566,3.566,0,0,1,0,3.489,3.566,3.566,0,0,1,0,3.489,3.438,3.438,0,0,1,.456,1.746c0,1.575-.977,2.855-2.181,2.855s-2.182-1.28-2.182-2.855a3.438,3.438,0,0,1,.456-1.746,3.566,3.566,0,0,1,0-3.489A3.566,3.566,0,0,1,1079.645,401.59Z" transform="translate(-1070.826 -352.017)"/><ellipse class="c" cx="2.18" cy="2.855" rx="2.18" ry="2.855" transform="translate(8.365 41.488)"/><ellipse class="c" cx="2.18" cy="2.855" rx="2.18" ry="2.855" transform="translate(8.365 37.999)"/><path class="d" d="M1054.249,179.245a10.179,10.179,0,0,0,.812-1.2l-5.729-.941,6.2.046a10.465,10.465,0,0,0,.192-8.277l-8.314,4.313,7.664-5.637a10.448,10.448,0,1,0-17.245,11.688,10.452,10.452,0,0,0-1.192,1.9l7.44,3.874-7.931-2.661a10.448,10.448,0,0,0,1.684,9.81,10.446,10.446,0,1,0,16.421,0,10.446,10.446,0,0,0,0-12.918Z" transform="translate(-1035.541 -162.271)"/><path d="M1035.809,283.92a10.4,10.4,0,0,0,2.236,6.459,10.446,10.446,0,1,0,16.421,0C1055.867,288.6,1035.809,282.748,1035.809,283.92Z" transform="translate(-1035.758 -260.487)"/></g><g class="b" transform="translate(145.834 15.704)"><ellipse class="c" cx="1.631" cy="2.133" rx="1.631" ry="2.133" transform="translate(6.218 44.004)"/><path class="c" d="M972.569,424.757a2.572,2.572,0,0,1-.339-1.3,1.689,1.689,0,1,1,3.259,0,2.553,2.553,0,0,1-.341,1.3,2.663,2.663,0,0,1,0,2.608,2.663,2.663,0,0,1,0,2.608,2.554,2.554,0,0,1,.341,1.3,1.689,1.689,0,1,1-3.259,0,2.573,2.573,0,0,1,.339-1.3,2.683,2.683,0,0,1,0-2.608,2.683,2.683,0,0,1,0-2.608Z" transform="translate(-966.007 -387.747)"/><ellipse class="c" cx="1.631" cy="2.133" rx="1.631" ry="2.133" transform="translate(6.218 30.967)"/><ellipse class="c" cx="1.631" cy="2.133" rx="1.631" ry="2.133" transform="translate(6.218 28.359)"/><path class="d" d="M953.706,258.75a7.47,7.47,0,0,0,.607-.893l-4.282-.7,4.631.034a7.825,7.825,0,0,0,.149-6.187l-6.214,3.225,5.731-4.215a7.808,7.808,0,1,0-12.893,8.737,7.894,7.894,0,0,0-.891,1.424l5.557,2.888-5.915-1.987a7.81,7.81,0,0,0,1.259,7.331,7.806,7.806,0,1,0,12.263,0,7.806,7.806,0,0,0,0-9.653Z" transform="translate(-939.756 -246.103)"/><path class="e" d="M939.783,336.815a7.774,7.774,0,0,0,1.671,4.827,7.806,7.806,0,1,0,12.263,0C954.767,340.314,939.783,335.94,939.783,336.815Z" transform="translate(-939.775 -319.341)"/></g><g class="b" transform="translate(1.4 -0.327)"><ellipse class="c" cx="2.18" cy="2.855" rx="2.18" ry="2.855" transform="translate(8.22 58.902)"/><path class="c" d="M106.114,401.59a3.449,3.449,0,0,0,.456-1.746c0-1.577-.977-2.855-2.18-2.855s-2.18,1.278-2.18,2.855a3.449,3.449,0,0,0,.454,1.746,3.577,3.577,0,0,0,0,3.489,3.577,3.577,0,0,0,0,3.489,3.435,3.435,0,0,0-.454,1.746c0,1.575.975,2.855,2.18,2.855s2.186-1.276,2.186-2.851a3.438,3.438,0,0,0-.456-1.746,797839.729,797839.729,0,0,1,0-6.978Z" transform="translate(-93.989 -352.049)"/><ellipse class="c" cx="2.18" cy="2.855" rx="2.18" ry="2.855" transform="translate(8.22 41.456)"/><ellipse class="c" cx="2.18" cy="2.855" rx="2.18" ry="2.855" transform="translate(8.22 37.967)"/><path class="d" d="M61.549,179.381a10.409,10.409,0,0,1-.812-1.2l5.731-.941-6.2.056a10.465,10.465,0,0,1-.192-8.277l8.316,4.313L60.725,167.7A10.446,10.446,0,1,1,77.97,179.386a10.45,10.45,0,0,1,1.192,1.9l-7.442,3.865,7.932-2.661a10.46,10.46,0,0,1-1.686,9.81,10.446,10.446,0,1,1-16.421,0,10.446,10.446,0,0,1,0-12.918Z" transform="translate(-59.309 -162.439)"/><path class="e" d="M80.2,283.92a10.4,10.4,0,0,1-2.236,6.459,10.446,10.446,0,1,1-16.421,0C60.145,288.6,80.2,282.748,80.2,283.92Z" transform="translate(-59.309 -260.519)"/></g><g class="b" transform="translate(25.077 15.704)"><ellipse class="c" cx="1.631" cy="2.133" rx="1.631" ry="2.133" transform="translate(6.141 44.004)"/><path class="c" d="M217.85,424.757a2.573,2.573,0,0,0,.339-1.3,1.689,1.689,0,1,0-3.259,0,2.573,2.573,0,0,0,.341,1.3,445676.2,445676.2,0,0,1,0,5.216,2.573,2.573,0,0,0-.341,1.3,1.689,1.689,0,1,0,3.259,0,2.573,2.573,0,0,0-.339-1.3,222832.884,222832.884,0,0,0,0-5.215Z" transform="translate(-208.789 -387.747)"/><ellipse class="c" cx="1.631" cy="2.133" rx="1.631" ry="2.133" transform="translate(6.141 30.967)"/><ellipse class="c" cx="1.631" cy="2.133" rx="1.631" ry="2.133" transform="translate(6.141 28.359)"/><path class="d" d="M184.551,258.75a7.7,7.7,0,0,1-.607-.893l4.282-.7-4.631.034a7.825,7.825,0,0,1-.149-6.187l6.214,3.225-5.731-4.215a7.808,7.808,0,1,1,12.893,8.737,7.688,7.688,0,0,1,.891,1.424l-5.557,2.888,5.926-1.989a7.81,7.81,0,0,1-1.259,7.331,7.806,7.806,0,1,1-12.263,0,7.806,7.806,0,0,1,0-9.653Z" transform="translate(-182.88 -246.103)"/><path class="e" d="M198.508,336.815a7.774,7.774,0,0,1-1.671,4.827,7.806,7.806,0,1,1-12.263,0C183.52,340.314,198.508,335.94,198.508,336.815Z" transform="translate(-182.896 -319.341)"/></g><ellipse class="g" cx="92.867" cy="1.698" rx="92.867" ry="1.698" transform="translate(0 93.913)"/><ellipse class="g" cx="92.867" cy="1.698" rx="92.867" ry="1.698" transform="translate(0 107.852)"/><ellipse class="g" cx="92.867" cy="1.698" rx="92.867" ry="1.698" transform="translate(0 64.252)"/><ellipse class="g" cx="92.867" cy="1.698" rx="92.867" ry="1.698" transform="translate(0 78.989)"/><path class="g" d="M816.466,253.308a3.506,3.506,0,0,0-2.031.222,3,3,0,0,1-2.441,0,3.426,3.426,0,0,0-2.874.056,1.771,1.771,0,0,1-.826.207c-1.165,0-2.133-1.173-2.334-2.719a2.277,2.277,0,0,0,.575-.627,3.27,3.27,0,0,1,5.838-.021,2.238,2.238,0,0,0,1.933,1.061h.031A2.411,2.411,0,0,1,816.466,253.308Z" transform="translate(-679.069 -232.45)"/><path class="h" d="M820,230.2l-1.882,1.192,1.15-2.077a1.859,1.859,0,0,0-1.138-.4H818.1a2.175,2.175,0,0,1-.383-.029l-.648.4.274-.5a2.259,2.259,0,0,1-1.117-.847l-1.15.724.72-1.311a3.339,3.339,0,0,0-2.556-1.291,3.506,3.506,0,0,0-2.928,1.8,2.186,2.186,0,0,1-1.933,1.042h-.063c-1.311,0-2.372,1.485-2.372,3.317s1.061,3.319,2.372,3.319a1.8,1.8,0,0,0,.826-.207,3.422,3.422,0,0,1,2.874-.057,2.98,2.98,0,0,0,2.441,0,3.434,3.434,0,0,1,2.847.056,1.782,1.782,0,0,0,.816.2c1.311,0,2.372-1.487,2.372-3.319A4.2,4.2,0,0,0,820,230.2Z" transform="translate(-679.415 -214.196)"/><path class="g" d="M412.25,253.807a2.46,2.46,0,0,0-1.424.155,2.092,2.092,0,0,1-1.707,0,2.391,2.391,0,0,0-2.01.04,1.268,1.268,0,0,1-.575.144c-.814,0-1.493-.82-1.634-1.9a1.594,1.594,0,0,0,.408-.439,2.29,2.29,0,0,1,4.087-.015,1.569,1.569,0,0,0,1.355.743h.021A1.7,1.7,0,0,1,412.25,253.807Z" transform="translate(-345.379 -233.986)"/><path class="h" d="M414.715,237.637l-1.316.835.8-1.454a1.293,1.293,0,0,0-.8-.284h-.023a1.435,1.435,0,0,1-.272-.021l-.446.284.192-.349a1.59,1.59,0,0,1-.782-.592l-.8.506.506-.916a2.34,2.34,0,0,0-1.79-.906A2.451,2.451,0,0,0,407.94,236a1.533,1.533,0,0,1-1.355.73h-.044c-.918,0-1.661,1.039-1.661,2.322s.743,2.322,1.661,2.322a1.246,1.246,0,0,0,.575-.146,2.4,2.4,0,0,1,2.008-.038,2.058,2.058,0,0,0,1.709.012,2.4,2.4,0,0,1,1.993.038,1.242,1.242,0,0,0,.575.142c.916,0,1.659-1.04,1.659-2.322A2.938,2.938,0,0,0,414.715,237.637Z" transform="translate(-345.477 -221.213)"/><path class="g" d="M321.59,332.217a2.457,2.457,0,0,1,1.422.155,2.1,2.1,0,0,0,1.709,0,2.4,2.4,0,0,1,2.01.038,1.24,1.24,0,0,0,.575.146c.814,0,1.493-.822,1.632-1.9a1.562,1.562,0,0,1-.406-.439,2.292,2.292,0,0,0-4.089-.013,1.569,1.569,0,0,1-1.353.743h-.021A1.71,1.71,0,0,0,321.59,332.217Z" transform="translate(-276.12 -296.948)"/><path class="h" d="M307.2,316.085l1.318.835-.8-1.452a1.3,1.3,0,0,1,.8-.285h.021a1.634,1.634,0,0,0,.274-.019l.446.282-.192-.347a1.588,1.588,0,0,0,.78-.592l.8.506-.5-.918a2.338,2.338,0,0,1,1.79-.9,2.453,2.453,0,0,1,2.048,1.265,1.533,1.533,0,0,0,1.353.73h.046c.916,0,1.659,1.04,1.659,2.322s-.743,2.322-1.659,2.322a1.243,1.243,0,0,1-.575-.144,2.391,2.391,0,0,0-2.01-.04,2.08,2.08,0,0,1-.858.192,2.108,2.108,0,0,1-.851-.18,2.4,2.4,0,0,0-1.991.038,1.241,1.241,0,0,1-.575.142c-.918,0-1.661-1.038-1.661-2.322A2.958,2.958,0,0,1,307.2,316.085Z" transform="translate(-263.955 -284.237)"/><path class="i" d="M707.239,566.812c.5-.927-.067-2.062-.719-2.888a4.691,4.691,0,0,1-1.431-2.738c.025-1.512,1.631-2.407,2.912-3.208a14.235,14.235,0,0,0,2.615-2.108,3.857,3.857,0,0,0,.8-1.077,4.355,4.355,0,0,0,.241-1.916q-.082-3.236-.32-6.469" transform="translate(-594.88 -471.751)"/><path class="d" d="M730.558,536.358a2.359,2.359,0,0,0-1.178-1.933l-.529,1.044.017-1.265a2.359,2.359,0,1,0,1.69,2.154Z" transform="translate(-611.993 -462.265)"/><path class="d" d="M709.689,614.751a2.359,2.359,0,0,1-4.453-.958,2.3,2.3,0,0,1,.153-.958,2.361,2.361,0,0,1,4.407.025l-1.473,1.2,1.621-.383A2.346,2.346,0,0,1,709.689,614.751Z" transform="translate(-594.864 -524.496)"/><path class="d" d="M711.989,585.372a2.359,2.359,0,0,1-.747-4.627l-.013.971.535-1.058h0a2.359,2.359,0,0,1,.22,4.714Z" transform="translate(-598.427 -499.775)"/><path class="d" d="M741.835,565.49a2.359,2.359,0,1,1,1.042-4.407l-.416,1.15.849-.839a2.359,2.359,0,0,1-1.483,4.095Z" transform="translate(-623.221 -483.755)"/><path class="e" d="M730.224,542.445c-.544.059-1.073.228-1.621.263a1.754,1.754,0,0,1-1.491-.521,7.562,7.562,0,0,1-.437-.766,1.679,1.679,0,0,0-.594-.56,2.359,2.359,0,1,0,4.407,1.567C730.4,542.429,730.313,542.435,730.224,542.445Z" transform="translate(-611.973 -467.718)"/><path class="e" d="M741.878,571.185a2.359,2.359,0,0,1-2.244-3.365,1.744,1.744,0,0,1,.473.475,7.989,7.989,0,0,0,.468.78,1.924,1.924,0,0,0,1.565.546c.569-.029,1.119-.192,1.686-.24.079,0,.157-.012.238-.013A2.359,2.359,0,0,1,741.878,571.185Z" transform="translate(-623.261 -489.445)"/><path class="e" d="M711.993,591.261a2.359,2.359,0,0,1-2.263-3.321,1.917,1.917,0,0,1,.5.479,7.89,7.89,0,0,0,.512.8,2.136,2.136,0,0,0,1.669.575c.6-.025,1.15-.155,1.724-.192A2.363,2.363,0,0,1,711.993,591.261Z" transform="translate(-598.423 -505.659)"/><path class="e" d="M709.689,621.086a2.359,2.359,0,0,1-4.453-.958,2.3,2.3,0,0,1,.153-.958,2.354,2.354,0,0,1,.517.462c.224.272.372.575.632.837a2.948,2.948,0,0,0,1.952.686,9.915,9.915,0,0,0,1.2-.069Z" transform="translate(-594.846 -530.827)"/><path class="i" d="M97.239,494.812c.5-.927-.067-2.062-.719-2.887a4.7,4.7,0,0,1-1.431-2.738c.025-1.512,1.631-2.407,2.912-3.207a14.237,14.237,0,0,0,2.615-2.108,3.857,3.857,0,0,0,.8-1.077,4.355,4.355,0,0,0,.241-1.916q-.084-3.236-.32-6.469" transform="translate(-86.833 -414.019)"/><path class="d" d="M120.558,464.358a2.359,2.359,0,0,0-1.178-1.933l-.529,1.044.017-1.265a2.359,2.359,0,1,0,1.69,2.154Z" transform="translate(-103.61 -404.246)"/><path class="d" d="M99.689,542.751a2.359,2.359,0,0,1-4.453-.958,2.3,2.3,0,0,1,.153-.958,2.361,2.361,0,0,1,4.407.025l-1.473,1.2,1.621-.383A2.345,2.345,0,0,1,99.689,542.751Z" transform="translate(-86.949 -466.477)"/><path class="d" d="M101.989,513.372a2.359,2.359,0,0,1-.747-4.627l-.013.971.535-1.058h0a2.359,2.359,0,0,1,.22,4.714Z" transform="translate(-90.414 -441.756)"/><path class="d" d="M131.835,493.49a2.359,2.359,0,1,1,1.042-4.407l-.416,1.15.849-.839a2.359,2.359,0,0,1-1.483,4.095Z" transform="translate(-114.533 -425.736)"/><path class="e" d="M120.224,470.445c-.544.059-1.073.228-1.621.263a1.754,1.754,0,0,1-1.491-.521,7.568,7.568,0,0,1-.437-.766,1.678,1.678,0,0,0-.594-.56,2.359,2.359,0,1,0,4.407,1.567C120.4,470.429,120.313,470.435,120.224,470.445Z" transform="translate(-103.595 -409.696)"/><path class="e" d="M131.878,499.185a2.359,2.359,0,0,1-2.244-3.365,1.746,1.746,0,0,1,.473.475,7.993,7.993,0,0,0,.468.78,1.924,1.924,0,0,0,1.565.546c.569-.029,1.119-.192,1.686-.24.079,0,.157-.012.238-.013A2.359,2.359,0,0,1,131.878,499.185Z" transform="translate(-114.576 -431.423)"/><path class="e" d="M101.993,519.261a2.359,2.359,0,0,1-2.263-3.321,1.916,1.916,0,0,1,.5.479,7.9,7.9,0,0,0,.512.8,2.136,2.136,0,0,0,1.669.575c.6-.025,1.15-.155,1.724-.192A2.363,2.363,0,0,1,101.993,519.261Z" transform="translate(-90.418 -447.637)"/><path class="e" d="M99.689,549.086a2.359,2.359,0,0,1-4.453-.958,2.3,2.3,0,0,1,.153-.958,2.355,2.355,0,0,1,.517.462c.224.272.372.575.632.837a2.948,2.948,0,0,0,1.952.686A9.914,9.914,0,0,0,99.689,549.086Z" transform="translate(-86.949 -472.805)"/><path class="i" d="M493.836,412.458c-.5-.925.067-2.06.72-2.886a4.677,4.677,0,0,0,1.429-2.738c-.023-1.514-1.629-2.407-2.912-3.207a14.178,14.178,0,0,1-2.613-2.108,3.789,3.789,0,0,1-.8-1.075,4.415,4.415,0,0,1-.241-1.916q.086-3.236.32-6.469" transform="translate(-415.595 -347.697)"/><path class="d" d="M478.379,382a2.357,2.357,0,0,1,1.176-1.933l.529,1.044-.015-1.265a2.418,2.418,0,0,1,.776-.094A2.359,2.359,0,1,1,478.379,382Z" transform="translate(-406.337 -337.879)"/><path class="d" d="M499.241,460.311a2.359,2.359,0,1,0-.113-1.9l1.473,1.2-1.621-.383A2.345,2.345,0,0,0,499.241,460.311Z" transform="translate(-423.46 -400.029)"/><path class="d" d="M496.934,431.011a2.359,2.359,0,0,0,.749-4.627l.011.971-.535-1.058h0a2.359,2.359,0,0,0-2.472,2.24,2.33,2.33,0,0,0,.1.8,2.357,2.357,0,0,0,2.144,1.669Z" transform="translate(-419.891 -375.387)"/><path class="d" d="M467.028,411.11a2.359,2.359,0,1,0-1.044-4.407l.418,1.15-.858-.822a2.339,2.339,0,0,0-.766,1.629,2.281,2.281,0,0,0,.059.65A2.357,2.357,0,0,0,467.028,411.11Z" transform="translate(-395.033 -359.352)"/><path class="e" d="M478.934,388.085c.544.059,1.073.228,1.619.263a1.762,1.762,0,0,0,1.493-.521,7.546,7.546,0,0,0,.435-.766,1.685,1.685,0,0,1,.6-.56,2.359,2.359,0,1,1-4.407,1.565C478.756,388.067,478.844,388.075,478.934,388.085Z" transform="translate(-406.579 -343.326)"/><path class="e" d="M467.316,416.8a2.361,2.361,0,0,0,2.244-3.365,1.753,1.753,0,0,0-.475.475,7.992,7.992,0,0,1-.467.78,1.918,1.918,0,0,1-1.564.546c-.569-.029-1.119-.192-1.686-.24-.079,0-.159-.012-.238-.013a2.357,2.357,0,0,0,2.186,1.816Z" transform="translate(-395.326 -365.036)"/><path class="e" d="M497.382,436.9a2.357,2.357,0,0,0,2.263-3.32,1.883,1.883,0,0,0-.5.479,7.893,7.893,0,0,1-.512.8,2.14,2.14,0,0,1-1.671.575c-.6-.025-1.15-.155-1.724-.192A2.357,2.357,0,0,0,497.382,436.9Z" transform="translate(-420.346 -381.267)"/><path class="e" d="M500.34,466.726a2.359,2.359,0,0,0,4.3-1.916,2.265,2.265,0,0,0-.517.462c-.224.272-.383.575-.632.837a2.952,2.952,0,0,1-1.954.686A10.344,10.344,0,0,1,500.34,466.726Z" transform="translate(-424.577 -406.435)"/><circle class="c" cx="19.153" cy="19.153" r="19.153" transform="translate(111.84 26.716)"/><path class="d" d="M803.121,368.918a14.511,14.511,0,0,0-3.066-2.048c-.918-.441-1.255-.433-1.9.036-.54.383-.891.753-1.512.617a9.1,9.1,0,0,1-3.041-2.249,8.836,8.836,0,0,1-2.246-3.039c-.132-.63.232-.973.619-1.514.468-.65.481-.987.036-1.9a14.692,14.692,0,0,0-2.05-3.066c-.673-.671-.818-.523-1.186-.383a6.863,6.863,0,0,0-1.086.575,3.278,3.278,0,0,0-1.3,1.378c-.263.56-.56,1.6.968,4.317a24.085,24.085,0,0,0,4.234,5.647h0a24.12,24.12,0,0,0,5.666,4.242c2.717,1.533,3.757,1.228,4.317.968a3.217,3.217,0,0,0,1.376-1.3,6.773,6.773,0,0,0,.575-1.086C803.645,369.736,803.794,369.587,803.121,368.918Z" transform="translate(-663.227 -318.068)"/><path class="e" d="M750.85,300.86A19.161,19.161,0,1,0,770,320.014,19.161,19.161,0,0,0,750.85,300.86Zm0,35.757a16.606,16.606,0,1,1,16.607-16.606,16.606,16.606,0,0,1-16.607,16.606Z" transform="translate(-619.857 -274.142)"/><circle class="c" cx="19.153" cy="19.153" r="19.153" transform="translate(74.056 56.699)"/><path class="d" d="M566.215,522.268,560.48,528.1a.1.1,0,0,0,0,.149l4.024,4.279a.692.692,0,1,1-.979.979l-4-4.263a.109.109,0,0,0-.153,0l-.975.985a4.286,4.286,0,0,1-3.066,1.289,4.38,4.38,0,0,1-3.119-1.326l-.937-.958a.109.109,0,0,0-.153,0l-3.993,4.254a.692.692,0,1,1-.979-.979l4.008-4.269a.115.115,0,0,0,0-.149l-5.735-5.834a.105.105,0,0,0-.18.075v11.675a1.709,1.709,0,0,0,1.7,1.7H564.7a1.709,1.709,0,0,0,1.7-1.7V522.343a.105.105,0,0,0-.184-.075Z" transform="translate(-462.108 -452.608)"/><path class="d" d="M558.079,522.377a2.9,2.9,0,0,0,2.092-.862l8.352-8.5a1.667,1.667,0,0,0-1.054-.383H548.7a1.656,1.656,0,0,0-1.054.383l8.354,8.5A2.89,2.89,0,0,0,558.079,522.377Z" transform="translate(-464.866 -444.913)"/><path class="e" d="M519.94,452.69a19.161,19.161,0,1,0,19.151,19.154A19.161,19.161,0,0,0,519.94,452.69Zm0,35.758a16.606,16.606,0,1,1,16.606-16.607A16.606,16.606,0,0,1,519.94,488.448Z" transform="translate(-426.937 -395.989)"/><circle class="c" cx="19.153" cy="19.153" r="19.153" transform="translate(35.026 41.795)"/><path class="d" d="M332.635,430.16,325,447.776l.713.713,6.925-3.054,6.925,3.054.713-.713Z" transform="translate(-279.21 -378.4)"/><path class="e" d="M283.97,378a19.161,19.161,0,1,0,19.151,19.157A19.161,19.161,0,0,0,283.97,378Zm0,35.757a13.652,13.652,0,1,1,0,.008Z" transform="translate(-229.789 -336.211)"/><g class="j" transform="translate(128.747 90.322)"><path d="M812.022,628.174h-.042a1.289,1.289,0,0,0,.492,0h.048A1.725,1.725,0,0,0,812.022,628.174Z" transform="translate(-811.98 -628.156)"/></g><path class="i" d="M879.319,490.93c.5-.925-.067-2.062-.72-2.888a4.671,4.671,0,0,1-1.429-2.738c.023-1.512,1.629-2.4,2.912-3.207a14.16,14.16,0,0,0,2.614-2.108,3.818,3.818,0,0,0,.8-1.075,4.415,4.415,0,0,0,.241-1.916q-.084-3.238-.32-6.469" transform="translate(-737.922 -410.894)"/><path class="d" d="M902.628,460.444a2.355,2.355,0,0,0-1.176-1.931l-.529,1.044.015-1.265a2.315,2.315,0,0,0-.776-.094,2.359,2.359,0,1,0,2.466,2.246Z" transform="translate(-754.99 -401.093)"/><path class="d" d="M881.768,538.758a2.359,2.359,0,1,1,.113-1.9l-1.473,1.2,1.621-.383a2.346,2.346,0,0,1-.261,1.084Z" transform="translate(-737.87 -463.242)"/><path class="d" d="M884.06,509.461a2.359,2.359,0,0,1-.749-4.627l-.011.971.535-1.056h0a2.359,2.359,0,1,1,.22,4.714Z" transform="translate(-741.423 -438.606)"/><path class="d" d="M913.912,489.58a2.359,2.359,0,1,1,1.044-4.407l-.418,1.15.858-.824a2.345,2.345,0,0,1,.766,1.629,2.276,2.276,0,0,1-.059.65A2.359,2.359,0,0,1,913.912,489.58Z" transform="translate(-766.228 -422.585)"/><path class="e" d="M902.3,466.525c-.544.061-1.075.23-1.621.264a1.757,1.757,0,0,1-1.493-.523,7.325,7.325,0,0,1-.435-.766,1.7,1.7,0,0,0-.594-.56,2.359,2.359,0,1,0,4.407,1.565C902.478,466.509,902.39,466.515,902.3,466.525Z" transform="translate(-754.975 -406.538)"/><path class="e" d="M913.953,495.275a2.361,2.361,0,0,1-2.244-3.365,1.744,1.744,0,0,1,.475.473,7.57,7.57,0,0,0,.468.78,1.919,1.919,0,0,0,1.563.548c.569-.027,1.119-.192,1.686-.24.079,0,.159-.013.238-.015A2.359,2.359,0,0,1,913.953,495.275Z" transform="translate(-766.262 -428.272)"/><path class="e" d="M884.061,515.324A2.357,2.357,0,0,1,881.8,512a1.946,1.946,0,0,1,.5.479c.192.259.3.558.512.8a2.183,2.183,0,0,0,1.671.586c.6-.013,1.15-.157,1.724-.2A2.359,2.359,0,0,1,884.061,515.324Z" transform="translate(-741.414 -444.462)"/><path class="e" d="M881.825,545.176a2.361,2.361,0,0,1-4.3-1.916,2.312,2.312,0,0,1,.517.462c.226.274.374.575.632.839a2.963,2.963,0,0,0,1.954.686A10.334,10.334,0,0,0,881.825,545.176Z" transform="translate(-737.903 -469.655)"/><path class="i" d="M1038.319,642.93c.5-.925-.067-2.062-.72-2.888a4.671,4.671,0,0,1-1.429-2.738c.023-1.512,1.629-2.4,2.912-3.207a14.163,14.163,0,0,0,2.614-2.108,3.819,3.819,0,0,0,.8-1.075,4.417,4.417,0,0,0,.241-1.916q-.082-3.238-.32-6.469" transform="translate(-871.862 -533.286)"/><path class="d" d="M1061.668,612.445a2.355,2.355,0,0,0-1.176-1.931l-.529,1.044.015-1.265a2.313,2.313,0,0,0-.766-.094,2.359,2.359,0,1,0,2.466,2.246Z" transform="translate(-888.672 -523.58)"/><path class="d" d="M1040.768,690.758a2.359,2.359,0,1,1,.113-1.9l-1.474,1.2,1.621-.383A2.344,2.344,0,0,1,1040.768,690.758Z" transform="translate(-871.978 -585.663)"/><path class="d" d="M1043.059,661.461a2.359,2.359,0,0,1-.749-4.627l-.011.971.535-1.056h0a2.359,2.359,0,1,1,.22,4.714Z" transform="translate(-875.434 -560.947)"/><path class="d" d="M1072.912,641.58a2.359,2.359,0,1,1,1.044-4.407l-.418,1.15.858-.824a2.345,2.345,0,0,1,.766,1.629,2.276,2.276,0,0,1-.059.65A2.359,2.359,0,0,1,1072.912,641.58Z" transform="translate(-899.561 -544.875)"/><path class="e" d="M1061.3,618.525c-.544.061-1.075.23-1.621.264a1.757,1.757,0,0,1-1.493-.523,7.32,7.32,0,0,1-.435-.766,1.7,1.7,0,0,0-.594-.559,2.359,2.359,0,1,0,4.407,1.565C1061.478,618.509,1061.39,618.515,1061.3,618.525Z" transform="translate(-888.621 -529.028)"/><path class="e" d="M1072.953,647.275a2.361,2.361,0,0,1-2.244-3.365,1.746,1.746,0,0,1,.475.473,7.548,7.548,0,0,0,.468.78,1.919,1.919,0,0,0,1.563.548c.569-.027,1.119-.192,1.686-.24.078,0,.159-.013.238-.015A2.359,2.359,0,0,1,1072.953,647.275Z" transform="translate(-899.602 -550.57)"/><path class="e" d="M1043.061,667.324A2.357,2.357,0,0,1,1040.8,664a1.944,1.944,0,0,1,.5.479c.192.259.3.558.512.8a2.183,2.183,0,0,0,1.671.586c.6-.013,1.15-.157,1.724-.2A2.359,2.359,0,0,1,1043.061,667.324Z" transform="translate(-875.435 -566.81)"/><path class="e" d="M1040.825,697.176a2.361,2.361,0,0,1-4.3-1.916,2.312,2.312,0,0,1,.517.462c.226.274.383.575.632.839a2.962,2.962,0,0,0,1.954.686A10.346,10.346,0,0,0,1040.825,697.176Z" transform="translate(-872.035 -592.081)"/></g></svg>