<svg xmlns="http://www.w3.org/2000/svg" width="856" height="495.158" viewBox="0 0 856 495.158"><defs><style>.a{opacity:0.651;}.b{fill:#3f3d56;}.c{fill:#2f2e41;}.d{fill:#fff;}.e{fill:#e6e6e6;}.f{fill:#6c63ff;}.g{fill:#ffb8b8;}</style></defs><g class="a"><rect class="b" width="856" height="2" transform="translate(0 339.21)"/><path class="c" d="M790.982,682.841H220.291a19.136,19.136,0,0,1-19.136-19.136h0q310.314-36.064,608.963,0h0A19.136,19.136,0,0,1,790.982,682.841Z" transform="translate(-172 -202.421)"/><path class="b" d="M810.118,664.831l-608.963-1.126,70.577-118.753.338-.563V282.67a24.188,24.188,0,0,1,24.192-24.19H711.637a24.188,24.188,0,0,1,24.19,24.192V546.19Z" transform="translate(-172 -202.421)"/><path class="d" d="M295.708,275.365a7.888,7.888,0,0,0-7.879,7.879V521.876a7.889,7.889,0,0,0,7.879,7.879H715.566a7.889,7.889,0,0,0,7.879-7.879V283.244a7.889,7.889,0,0,0-7.879-7.879Z" transform="translate(-172 -202.421)"/><path class="c" d="M297.467,561.273a3.386,3.386,0,0,0-3.068,1.965l-21.747,47.276a3.377,3.377,0,0,0,3.067,4.788H733.045a3.377,3.377,0,0,0,3.02-4.887L712.426,563.14a3.36,3.36,0,0,0-3.02-1.867Z" transform="translate(-172 -202.421)"/><circle class="d" cx="5.065" cy="5.065" r="5.065" transform="translate(326.883 58.873)"/><path class="c" d="M459,624.308a3.382,3.382,0,0,0-3.26,2.5l-5.455,20.261a3.376,3.376,0,0,0,3.26,4.255H557.283a3.376,3.376,0,0,0,3.19-4.482L553.46,626.58a3.379,3.379,0,0,0-3.191-2.272Z" transform="translate(-172 -202.421)"/><path class="c" d="M563.827,338.028v4.5H99.732l.349-.562v-3.94Z"/><path class="e" d="M347.286,324.912a6.206,6.206,0,0,0-6.11,6.285v142.47a6.206,6.206,0,0,0,6.11,6.285h316.7a6.206,6.206,0,0,0,6.11-6.285V331.2a6.206,6.206,0,0,0-6.11-6.285Z" transform="translate(-172 -202.421)"/><path class="f" d="M529.224,480.208H644.51a3.711,3.711,0,0,0,2.624-6.335L573.35,400.088a3.715,3.715,0,0,0-5.248,0l-18.348,18.348a7.783,7.783,0,0,1-11.008,0l-57.47-57.47a3.716,3.716,0,0,0-5.249,0l-112.4,112.4a3.711,3.711,0,0,0,2.624,6.335H529.372Z" transform="translate(-172 -202.421)"/><circle class="f" cx="14.257" cy="14.257" r="14.257" transform="translate(205.836 141.839)"/><path class="b" d="M354.887,376.486a1.018,1.018,0,0,1-1.018-1.018V307.239a1.018,1.018,0,0,1,1.018-1.018H433.3a1.018,1.018,0,0,1,0,2.037H355.9v67.21a1.018,1.018,0,0,1-1.018,1.018Z" transform="translate(-172 -202.421)"/><path class="b" d="M656.313,377.5a1.018,1.018,0,0,1-1.018-1.018v-67.21H577.9a1.018,1.018,0,0,1,0-2.037h78.412a1.018,1.018,0,0,1,1.018,1.019v68.228a1.018,1.018,0,0,1-1.018,1.018Z" transform="translate(-172 -202.421)"/><path class="b" d="M433.3,497.668H354.887a1.018,1.018,0,0,1-1.018-1.018V428.421a1.018,1.018,0,0,1,2.037,0v67.21H433.3a1.018,1.018,0,0,1,0,2.037Z" transform="translate(-172 -202.421)"/><path class="b" d="M656.313,498.686H577.9a1.018,1.018,0,0,1,0-2.037h77.393v-67.21a1.018,1.018,0,1,1,2.037,0v68.228a1.018,1.018,0,0,1-1.018,1.018Z" transform="translate(-172 -202.421)"/><path class="g" d="M985.593,483.379h0a11.488,11.488,0,0,0,12.6-11.434V447.467l-16.01-1.921-6.539,23.3a11.488,11.488,0,0,0,9.945,14.539Z" transform="translate(-172 -202.421)"/><path class="g" d="M847.125,494.762h0a11.488,11.488,0,0,0,10.137-13.668L852.5,457.083l-16.077,1.232-1.88,24.123a11.488,11.488,0,0,0,12.585,12.325Z" transform="translate(-172 -202.421)"/><path class="c" d="M892.533,676.084l18.709.8c-4-75.62-2.755-139.587,8.187-182.029,13.617,48.456,18.3,112.044,18.66,182.954l20.4-1.725c8.721-83.969,13.144-161.6,3.842-219.011-29.185-16.956-61.5-17.007-97.338,1.921C864.193,523.3,875.222,597.161,892.533,676.084Z" transform="translate(-172 -202.421)"/><path class="c" d="M895.949,672.193l-7.938,2.646s-16.759-4.41-12.349,7.056,16.759,9.7,16.759,9.7,14.995,11.467,21.169,2.646l-3.528-18.523Z" transform="translate(-172 -202.421)"/><path class="c" d="M951.874,672.193l7.938,2.646s16.759-4.41,12.349,7.056-16.759,9.7-16.759,9.7-14.995,11.467-21.169,2.646l3.528-18.523Z" transform="translate(-172 -202.421)"/><circle class="g" cx="26.256" cy="26.256" r="26.256" transform="translate(689.794 6.822)"/><path class="g" d="M884.848,288.011l39.7-10.887c-10.046-12.316-13.687-26.242-11.527-41.625H884.848Z" transform="translate(-172 -202.421)"/><path class="f" d="M862.435,464.757c35.476-13.08,70.223-15.515,103.742,0-9.689-63.726-12.759-121.228-2.4-161.22a16.857,16.857,0,0,0-9.465-19.69l-35.528-15.688-33.94,5.123-28.651,20.8a16.805,16.805,0,0,0-5.757,19.8C865.537,351.906,868.3,403.559,862.435,464.757Z" transform="translate(-172 -202.421)"/><path class="f" d="M981.546,447.467l18.571,1.921L981.184,315.77a39.429,39.429,0,0,0-27.122-32.053l-2.613-.829,3.842,71.723Z" transform="translate(-172 -202.421)"/><path class="f" d="M853.625,460.16,835.594,465l-2.484-134.93a39.429,39.429,0,0,1,21.7-35.947l2.449-1.232,7.575,71.425Z" transform="translate(-172 -202.421)"/><path class="c" d="M913.9,255.353s21.527-26.1,1.511-45.177c-13.886-13.236-33.58-6.639-44.341-1.357a19.865,19.865,0,0,0-11.093,14.795c-.717,4.94.466,9.373,8.066,7.345,15.2-4.056,10.642,9.371,10.642,9.371s10.809-.171,10.642,9.371S913.9,255.353,913.9,255.353Z" transform="translate(-172 -202.421)"/></g></svg>