<svg xmlns="http://www.w3.org/2000/svg" width="64.281" height="64.281" viewBox="0 0 64.281 64.281"><defs><style>.a{fill:none;}.b{fill:#ac982c;}</style></defs><path class="a" d="M0,0H64.281V64.281H0Z"/><path class="b" d="M16.427,12.04,11.606,7.246,7.83,11.022l4.794,4.794ZM9.035,27.2H1v5.357H9.035ZM33.141.55H27.784v7.9h5.357V.55ZM53.095,11.022,49.318,7.246,44.524,12.04,48.3,15.817ZM44.5,47.716l4.794,4.821,3.777-3.777-4.821-4.794-3.75,3.75ZM51.889,27.2v5.357h8.035V27.2ZM30.462,13.808a16.07,16.07,0,1,0,16.07,16.07A16.083,16.083,0,0,0,30.462,13.808Zm-2.678,45.4h5.357v-7.9H27.784ZM7.83,48.734l3.777,3.777L16.4,47.69l-3.777-3.777Z" transform="translate(1.678 0.923)"/></svg>