<svg xmlns="http://www.w3.org/2000/svg" width="827.914" height="663.576" viewBox="0 0 827.914 663.576"><defs><style>.a{opacity:0.101;}.b,.f{fill:#fff;}.b{stroke:#707070;}.c{fill:#f2f2f2;}.d,.g{fill:#6c63ff;}.e{fill:#3f3d56;}.g{opacity:0.3;}.h{stroke:none;}.i{fill:none;}</style></defs><g class="a" transform="translate(-1414.076 -198.768) rotate(11)"><g class="b" transform="translate(1525.668 -94.072)"><rect class="h" width="740" height="532"/><rect class="i" x="0.5" y="0.5" width="739" height="531"/></g><rect class="c" width="739.092" height="23.514" transform="translate(1525.968 -94)"/><circle class="d" cx="6.086" cy="6.086" r="6.086" transform="translate(1539.66 -88.675)"/><circle class="d" cx="6.086" cy="6.086" r="6.086" transform="translate(1559.438 -88.675)"/><circle class="d" cx="6.086" cy="6.086" r="6.086" transform="translate(1579.216 -88.675)"/><path class="e" d="M175.491,401.33l-.524.45V560.4H914.06V281.779l-8.808.668Z" transform="translate(1351 -123.439)"/><rect class="e" width="206.392" height="8.322" transform="translate(1579.306 63.291)"/><rect class="e" width="206.392" height="8.322" transform="translate(1579.306 81.6)"/><rect class="e" width="69.907" height="8.322" transform="translate(1579.306 99.908)"/><rect class="f" width="206.392" height="8.322" transform="translate(2000.203 294.336)"/><rect class="f" width="206.392" height="8.322" transform="translate(2000.203 312.645)"/><rect class="f" width="69.907" height="8.322" transform="translate(2000.203 330.954)"/><circle class="c" cx="8.119" cy="8.119" r="8.119" transform="translate(1863.851 413.049)"/><circle class="c" cx="8.119" cy="8.119" r="8.119" transform="translate(1887.395 413.861)"/><circle class="c" cx="8.119" cy="8.119" r="8.119" transform="translate(1910.939 414.673)"/><circle class="e" cx="6.495" cy="6.495" r="6.495" transform="translate(1889.093 415.485)"/><rect class="e" width="69.907" height="15.949" transform="translate(1647.366 158.55)"/><rect class="f" width="69.907" height="15.949" transform="translate(2062.889 374.372)"/><circle class="g" cx="48.358" cy="48.358" r="48.358" transform="translate(1634.355 118.252)"/><circle class="g" cx="32.239" cy="32.239" r="32.239" transform="translate(1650.474 134.371)"/><circle class="d" cx="22.388" cy="22.388" r="22.388" transform="translate(1660.325 144.222)"/><circle class="g" cx="48.358" cy="48.358" r="48.358" transform="translate(2041.259 -1.595)"/><circle class="g" cx="32.239" cy="32.239" r="32.239" transform="translate(2057.378 14.524)"/><circle class="d" cx="22.388" cy="22.388" r="22.388" transform="translate(2067.229 24.375)"/><circle class="g" cx="48.358" cy="48.358" r="48.358" transform="translate(2049.878 334.073)"/><circle class="g" cx="32.239" cy="32.239" r="32.239" transform="translate(2065.998 350.192)"/><circle class="d" cx="22.388" cy="22.388" r="22.388" transform="translate(2075.849 360.043)"/><path class="c" d="M1012.971,692.7c11.024,18.8,33.257,26.242,33.257,26.242s4.36-23.037-6.664-41.836-33.257-26.242-33.257-26.242S1001.947,673.9,1012.971,692.7Z" transform="translate(1218.898 -281.834)"/><path class="d" d="M1016.63,689.466c19.064,10.559,27.051,32.6,27.051,32.6s-22.923,4.924-41.987-5.634-27.051-32.6-27.051-32.6S997.566,678.908,1016.63,689.466Z" transform="translate(1222.118 -285.158)"/></g></svg>