<svg xmlns="http://www.w3.org/2000/svg" xmlns:xlink="http://www.w3.org/1999/xlink" width="180.247" height="114.861" viewBox="0 0 180.247 114.861"><defs><style>.a{opacity:0.75;}.b{fill:#3f3d56;}.c,.d{fill:#6c63ff;}.d,.j,.k{fill-rule:evenodd;}.e{opacity:0.7;}.f{fill:url(#a);}.g{fill:rgba(0,0,0,0.1);}.h{fill:#e0e0e0;}.i{fill:#fdb797;}.j{fill:url(#b);}.k{fill:#535461;}.l{fill:#fff;}.m{fill:#eee;}.n{fill:#333;}.o{opacity:0.1;}</style><linearGradient id="a" x1="-8.986" y1="-7.045" x2="-8.977" y2="-7.045" gradientUnits="objectBoundingBox"><stop offset="0" stop-color="gray" stop-opacity="0.251"/><stop offset="0.54" stop-color="gray" stop-opacity="0.122"/><stop offset="1" stop-color="gray" stop-opacity="0.102"/></linearGradient><linearGradient id="b" x1="-0.676" y1="-1.588" x2="-0.673" y2="-1.588" xlink:href="#a"/></defs><g class="a" transform="translate(0 -218.55)"><g transform="translate(19.698 300.516)"><path class="b" d="M227.805,613.562c-1.3,4.935-5.837,8.019-5.837,8.019s-2.44-4.917-1.144-9.852,5.837-8.019,5.837-8.019S229.1,608.627,227.805,613.562Z" transform="translate(-220.445 -603.71)"/></g><g transform="translate(21.058 305.398)"><path class="c" d="M231.8,633.95c-3.63,3.586-4.036,9.06-4.036,9.06s5.479-.34,9.109-3.926,4.036-9.06,4.036-9.06S235.434,630.364,231.8,633.95Z" transform="translate(-227.769 -630.024)"/></g><path class="d" d="M87.891,576.061a2.821,2.821,0,0,0-2.82-2.82h-14.2a2.821,2.821,0,0,0-2.82,2.82v2.8a2.821,2.821,0,0,0,2.82,2.82h14.2a2.821,2.821,0,0,0,2.82-2.82Z" transform="translate(-55.426 -256.299)"/><g class="e" transform="translate(150.947 308.508)"><g transform="translate(0)"><path class="f" d="M943.013,649.827v-3.042H927.8v14.068a2.98,2.98,0,0,0,2.966,2.966h9.278a2.979,2.979,0,0,0,2.965-2.966v-3.118a3.954,3.954,0,0,0,0-7.909Zm0,6.388v-4.867a2.433,2.433,0,1,1,0,4.867Z" transform="translate(-927.805 -646.785)"/></g></g><g transform="translate(162.056 312.026)"><path class="c" d="M991.289,665.744a3.611,3.611,0,1,0,3.611,3.611h0A3.629,3.629,0,0,0,991.289,665.744Zm0,5.833h0a2.222,2.222,0,1,1,2.221-2.222A2.233,2.233,0,0,1,991.289,671.577Z" transform="translate(-987.678 -665.744)"/></g><g transform="translate(162.056 312.026)"><path class="g" d="M991.289,665.744a3.611,3.611,0,1,0,3.611,3.611h0A3.629,3.629,0,0,0,991.289,665.744Zm0,5.833h0a2.222,2.222,0,1,1,2.221-2.222A2.233,2.233,0,0,1,991.289,671.577Z" transform="translate(-987.678 -665.744)"/></g><path class="c" d="M818.016,531.776H831.9V545.52a1.818,1.818,0,0,1-1.809,1.809H819.825a1.818,1.818,0,0,1-1.809-1.809Z" transform="translate(-666.236 -222.527)"/><rect class="h" width="180.247" height="6.11" transform="translate(0 324.802)"/><g transform="translate(58.747 270.041)"><path class="c" d="M462.943,476.808c9.073,0,23.9-2.7,30.949-7.35-.763-4.172-2.52-10.923-4.184-16.964-2.12-7.694-15.5-13.028-23.479-13.028h-7.691c-8.006,0-21.4,5.365-23.5,13.092-1.595,5.889-3.3,12.355-4.145,16.152C438.157,473.812,453.394,476.808,462.943,476.808Z" transform="translate(-430.896 -439.465)"/></g><path class="g" d="M449.291,261.311H463.11v11.055a6.943,6.943,0,0,1-6.91,6.91h0a6.943,6.943,0,0,1-6.91-6.91V261.311Z" transform="translate(-365.927 -2.246)"/><path class="i" d="M451.273,258.553h9.855a1.992,1.992,0,0,1,1.982,1.982v9.073a6.943,6.943,0,0,1-6.91,6.91h0a6.943,6.943,0,0,1-6.91-6.91v-9.073A1.992,1.992,0,0,1,451.273,258.553Z" transform="translate(-365.927)"/><g class="e" transform="translate(51.797 280.661)"><path class="j" d="M355.812,380.394a2.692,2.692,0,0,0-2.69-2.69H281.848a2.692,2.692,0,0,0-2.69,2.69v38.76a2.692,2.692,0,0,0,2.69,2.69h71.273a2.692,2.692,0,0,0,2.69-2.69Z" transform="translate(-279.158 -377.704)"/></g><path class="k" d="M360.519,387.072a4.982,4.982,0,0,0-4.979-4.979H291.621a4.982,4.982,0,0,0-4.979,4.979V420.44a4.982,4.982,0,0,0,4.979,4.979h63.918a4.981,4.981,0,0,0,4.979-4.979Z" transform="translate(-233.457 -100.618)"/><circle class="l" cx="2.499" cy="2.499" r="2.499" transform="translate(87.624 300.639)"/><rect class="h" width="164.972" height="2.499" transform="translate(7.638 330.912)"/><rect class="g" width="164.972" height="0.833" transform="translate(7.638 330.912)"/><g transform="translate(160.459 309.249)"><path class="g" d="M981.779,650.776v12.845a2.721,2.721,0,0,1-2.708,2.708h1.389a2.721,2.721,0,0,0,2.708-2.708V650.776Z" transform="translate(-979.071 -650.776)"/></g><g transform="translate(153.855 298.54)"><path class="m" d="M944.144,593.419a.811.811,0,0,0-.613.311c-.182.33.148.7.449.93a5.977,5.977,0,0,1,1.521,1.416,1.775,1.775,0,0,1,.084,1.962c-.54.732-1.828.89-1.953,1.791-.08.578.42,1.072.927,1.362,1.251.717,2.863.908,3.769,2.029a2.923,2.923,0,0,1,2.049-1.407c.836-.19,1.7-.176,2.551-.305a.883.883,0,0,0,.7-.373c.237-.481-.438-1.057-.205-1.54.177-.367.7-.339,1.079-.486a1.406,1.406,0,0,0,.7-1.677,3.165,3.165,0,0,0-1.195-1.551,13.38,13.38,0,0,0-4.811-2.224,12.317,12.317,0,0,0-2.557-.592A12.777,12.777,0,0,0,944.144,593.419Z" transform="translate(-943.478 -593.064)"/></g><g transform="translate(35.962 189.805)"><circle class="n" cx="20.445" cy="20.445" r="20.445" transform="translate(33.496 31.117)"/><path class="o" d="M544.34,606.686a18.854,18.854,0,0,0,13.1.036V605.11h-13.1Z" transform="translate(-496.975 -533.148)"/><circle class="i" cx="18.777" cy="18.777" r="18.777" transform="translate(35.163 36.86)"/><path class="n" d="M489.48,300.4s-.687,1.036,6.055,2c2.713.389.742.729,6.73,0,1.593-.193,10.345.8,12.254,0v-3.416l-9.213-3.307Z" transform="translate(-448.915 -262.082)"/><path class="n" d="M486.32,236.628a12.8,12.8,0,0,1,1.745-4.373c2.4-3.651,6.327,2.156,8.343-2.007.483,1.156.834-.5,0,0,1.931-.02,2.836,2.447,3.928,0,.551,1.976.923.394,0,2.007,1.712.124,3.541-.1,3.648,2.537a6.334,6.334,0,0,1-1.576,4.424c-.933,1.007-2.212-4.8-3.326-4.424-2.551.868-4.49,5.616-6.8,1.836C491.756,235.774,485.861,238.826,486.32,236.628Z" transform="translate(-440.533 -201.407)"/><ellipse class="i" cx="1.747" cy="3.276" rx="1.747" ry="3.276" transform="translate(33.409 52.344)"/><ellipse class="i" cx="1.747" cy="3.276" rx="1.747" ry="3.276" transform="translate(70.968 53.686)"/></g></g></svg>